<svg id="Capa_1" data-name="Capa 1" xmlns="http://www.w3.org/2000/svg" viewBox="0 0 2253.88 2417.81"><defs><style>.cls-1{fill:#049dd9;fill-rule:evenodd;}</style></defs><path class="cls-1" d="M1167.38,944.51l573.15-541.38,540.25,572L1780.32,1447.8a100,100,0,0,1-141.36-4L1167.38,944.51Zm899,953.46c-149.19-157.94-142.09-406.92,15.85-556.1l1.2-1.13c157.94-149.19,406.92-142.09,556.1,15.86s142.09,406.91-15.86,556.1l-1.19,1.13c-157.94,149.18-406.92,142.08-556.1-15.86Zm-942.8,351L1624,1776.27a100,100,0,0,1,141.37,4L2237,2279.57l-573.16,541.37-540.24-572ZM493.05,1581.45l573.15-541.37,471.58,499.26a100,100,0,0,1-4,141.36l-500.46,472.71Z" transform="translate(-493.05 -403.13)"/></svg>