<svg width="583" height="390" viewBox="0 0 583 390" fill="none" xmlns="http://www.w3.org/2000/svg">
<g filter="url(#filter0_d_202_4)">
<path d="M553.23 2H29C15.1929 2 4 13.1929 4 27V358.865C4 372.672 15.1929 383.865 29 383.865H553.23C567.037 383.865 578.23 372.672 578.23 358.865V27C578.23 13.1929 567.037 2 553.23 2Z" fill="url(#paint0_linear_202_4)"/>
<path opacity="0.1" d="M522.493 16.303H61.03C58.2686 16.303 56.03 18.5416 56.03 21.303V365.059C56.03 367.82 58.2686 370.059 61.03 370.059H522.493C525.254 370.059 527.493 367.82 527.493 365.059V21.303C527.493 18.5416 525.254 16.303 522.493 16.303Z" fill="#2A2A2A"/>
<mask id="mask0_202_4" style="mask-type:alpha" maskUnits="userSpaceOnUse" x="23" y="19" width="537" height="347">
<path d="M551.03 19.303H31.03C26.6117 19.303 23.03 22.8847 23.03 27.303V357.303C23.03 361.721 26.6117 365.303 31.03 365.303H551.03C555.448 365.303 559.03 361.721 559.03 357.303V27.303C559.03 22.8847 555.448 19.303 551.03 19.303Z" fill="white"/>
</mask>
<g mask="url(#mask0_202_4)">
<path d="M551.03 19.303H31.03C26.6117 19.303 23.03 22.8847 23.03 27.303V357.303C23.03 361.721 26.6117 365.303 31.03 365.303H551.03C555.448 365.303 559.03 361.721 559.03 357.303V27.303C559.03 22.8847 555.448 19.303 551.03 19.303Z" fill="#E8EAF6"/>
<path fill-rule="evenodd" clip-rule="evenodd" d="M19.5 19.5H566.5V78.5H19.5V19.5Z" fill="#5267DF"/>
<path opacity="0.245" d="M61.5 65.5C70.3366 65.5 77.5 58.3366 77.5 49.5C77.5 40.6634 70.3366 33.5 61.5 33.5C52.6634 33.5 45.5 40.6634 45.5 49.5C45.5 58.3366 52.6634 65.5 61.5 65.5Z" fill="white"/>
<path opacity="0.104" d="M522.5 65.5C531.337 65.5 538.5 58.3366 538.5 49.5C538.5 40.6634 531.337 33.5 522.5 33.5C513.663 33.5 506.5 40.6634 506.5 49.5C506.5 58.3366 513.663 65.5 522.5 65.5Z" fill="white"/>
<path opacity="0.75" d="M209.5 39.5H95.5C93.8431 39.5 92.5 40.8431 92.5 42.5C92.5 44.1569 93.8431 45.5 95.5 45.5H209.5C211.157 45.5 212.5 44.1569 212.5 42.5C212.5 40.8431 211.157 39.5 209.5 39.5Z" fill="white"/>
<path opacity="0.25" d="M153.5 53.5H95.5C93.8431 53.5 92.5 54.8431 92.5 56.5C92.5 58.1569 93.8431 59.5 95.5 59.5H153.5C155.157 59.5 156.5 58.1569 156.5 56.5C156.5 54.8431 155.157 53.5 153.5 53.5Z" fill="white"/>
<path d="M333.03 112.303H88.03C83.6117 112.303 80.03 115.885 80.03 120.303V420.303C80.03 424.721 83.6117 428.303 88.03 428.303H333.03C337.448 428.303 341.03 424.721 341.03 420.303V120.303C341.03 115.885 337.448 112.303 333.03 112.303Z" fill="white"/>
<path d="M495.03 112.303H383.03C378.612 112.303 375.03 115.885 375.03 120.303V420.303C375.03 424.721 378.612 428.303 383.03 428.303H495.03C499.448 428.303 503.03 424.721 503.03 420.303V120.303C503.03 115.885 499.448 112.303 495.03 112.303Z" fill="white"/>
<path opacity="0.5" d="M275.5 150.5H161.5C159.843 150.5 158.5 151.843 158.5 153.5C158.5 155.157 159.843 156.5 161.5 156.5H275.5C277.157 156.5 278.5 155.157 278.5 153.5C278.5 151.843 277.157 150.5 275.5 150.5Z" fill="#242A45"/>
</g>
<path d="M127.5 176.5C136.337 176.5 143.5 169.337 143.5 160.5C143.5 151.663 136.337 144.5 127.5 144.5C118.663 144.5 111.5 151.663 111.5 160.5C111.5 169.337 118.663 176.5 127.5 176.5Z" fill="#F98E5D"/>
<path opacity="0.25" d="M480.5 134.5H398.5C396.843 134.5 395.5 135.843 395.5 137.5C395.5 139.157 396.843 140.5 398.5 140.5H480.5C482.157 140.5 483.5 139.157 483.5 137.5C483.5 135.843 482.157 134.5 480.5 134.5Z" fill="#242A45"/>
<path opacity="0.25" d="M480.5 154.5H398.5C396.843 154.5 395.5 155.843 395.5 157.5C395.5 159.157 396.843 160.5 398.5 160.5H480.5C482.157 160.5 483.5 159.157 483.5 157.5C483.5 155.843 482.157 154.5 480.5 154.5Z" fill="#242A45"/>
<path opacity="0.25" d="M480.5 174.5H398.5C396.843 174.5 395.5 175.843 395.5 177.5C395.5 179.157 396.843 180.5 398.5 180.5H480.5C482.157 180.5 483.5 179.157 483.5 177.5C483.5 175.843 482.157 174.5 480.5 174.5Z" fill="#242A45"/>
<path opacity="0.25" d="M480.5 194.5H398.5C396.843 194.5 395.5 195.843 395.5 197.5C395.5 199.157 396.843 200.5 398.5 200.5H480.5C482.157 200.5 483.5 199.157 483.5 197.5C483.5 195.843 482.157 194.5 480.5 194.5Z" fill="#242A45"/>
<path opacity="0.25" d="M480.5 228.5H398.5C396.843 228.5 395.5 229.843 395.5 231.5C395.5 233.157 396.843 234.5 398.5 234.5H480.5C482.157 234.5 483.5 233.157 483.5 231.5C483.5 229.843 482.157 228.5 480.5 228.5Z" fill="#242A45"/>
<path opacity="0.25" d="M480.5 248.5H398.5C396.843 248.5 395.5 249.843 395.5 251.5C395.5 253.157 396.843 254.5 398.5 254.5H480.5C482.157 254.5 483.5 253.157 483.5 251.5C483.5 249.843 482.157 248.5 480.5 248.5Z" fill="#242A45"/>
<path opacity="0.25" d="M480.5 268.5H398.5C396.843 268.5 395.5 269.843 395.5 271.5C395.5 273.157 396.843 274.5 398.5 274.5H480.5C482.157 274.5 483.5 273.157 483.5 271.5C483.5 269.843 482.157 268.5 480.5 268.5Z" fill="#242A45"/>
<path opacity="0.25" d="M219.5 164.5H161.5C159.843 164.5 158.5 165.843 158.5 167.5C158.5 169.157 159.843 170.5 161.5 170.5H219.5C221.157 170.5 222.5 169.157 222.5 167.5C222.5 165.843 221.157 164.5 219.5 164.5Z" fill="#242A45"/>
<path d="M127.5 232.5C136.337 232.5 143.5 225.337 143.5 216.5C143.5 207.663 136.337 200.5 127.5 200.5C118.663 200.5 111.5 207.663 111.5 216.5C111.5 225.337 118.663 232.5 127.5 232.5Z" fill="#6AC6D6"/>
<path opacity="0.5" d="M275.5 206.5H161.5C159.843 206.5 158.5 207.843 158.5 209.5C158.5 211.157 159.843 212.5 161.5 212.5H275.5C277.157 212.5 278.5 211.157 278.5 209.5C278.5 207.843 277.157 206.5 275.5 206.5Z" fill="#242A45"/>
<path opacity="0.25" d="M219.5 220.5H161.5C159.843 220.5 158.5 221.843 158.5 223.5C158.5 225.157 159.843 226.5 161.5 226.5H219.5C221.157 226.5 222.5 225.157 222.5 223.5C222.5 221.843 221.157 220.5 219.5 220.5Z" fill="#242A45"/>
<path d="M127.5 288.5C136.337 288.5 143.5 281.337 143.5 272.5C143.5 263.663 136.337 256.5 127.5 256.5C118.663 256.5 111.5 263.663 111.5 272.5C111.5 281.337 118.663 288.5 127.5 288.5Z" fill="#A47ED4"/>
<path opacity="0.5" d="M275.5 262.5H161.5C159.843 262.5 158.5 263.843 158.5 265.5C158.5 267.157 159.843 268.5 161.5 268.5H275.5C277.157 268.5 278.5 267.157 278.5 265.5C278.5 263.843 277.157 262.5 275.5 262.5Z" fill="#242A45"/>
<path opacity="0.25" d="M219.5 276.5H161.5C159.843 276.5 158.5 277.843 158.5 279.5C158.5 281.157 159.843 282.5 161.5 282.5H219.5C221.157 282.5 222.5 281.157 222.5 279.5C222.5 277.843 221.157 276.5 219.5 276.5Z" fill="#242A45"/>
<path d="M127.5 344.5C136.337 344.5 143.5 337.337 143.5 328.5C143.5 319.663 136.337 312.5 127.5 312.5C118.663 312.5 111.5 319.663 111.5 328.5C111.5 337.337 118.663 344.5 127.5 344.5Z" fill="#EC7878"/>
<path opacity="0.5" d="M275.5 318.5H161.5C159.843 318.5 158.5 319.843 158.5 321.5C158.5 323.157 159.843 324.5 161.5 324.5H275.5C277.157 324.5 278.5 323.157 278.5 321.5C278.5 319.843 277.157 318.5 275.5 318.5Z" fill="#242A45"/>
<path opacity="0.25" d="M219.5 332.5H161.5C159.843 332.5 158.5 333.843 158.5 335.5C158.5 337.157 159.843 338.5 161.5 338.5H219.5C221.157 338.5 222.5 337.157 222.5 335.5C222.5 333.843 221.157 332.5 219.5 332.5Z" fill="#242A45"/>
</g>
<defs>
<filter id="filter0_d_202_4" x="0" y="0" width="582.23" height="389.865" filterUnits="userSpaceOnUse" color-interpolation-filters="sRGB">
<feFlood flood-opacity="0" result="BackgroundImageFix"/>
<feColorMatrix in="SourceAlpha" type="matrix" values="0 0 0 0 0 0 0 0 0 0 0 0 0 0 0 0 0 0 127 0" result="hardAlpha"/>
<feOffset dy="2"/>
<feGaussianBlur stdDeviation="2"/>
<feColorMatrix type="matrix" values="0 0 0 0 0 0 0 0 0 0 0 0 0 0 0 0 0 0 0.5 0"/>
<feBlend mode="normal" in2="BackgroundImageFix" result="effect1_dropShadow_202_4"/>
<feBlend mode="normal" in="SourceGraphic" in2="effect1_dropShadow_202_4" result="shape"/>
</filter>
<linearGradient id="paint0_linear_202_4" x1="572.562" y1="275.702" x2="113.349" y2="-29.6735" gradientUnits="userSpaceOnUse">
<stop stop-color="#151515"/>
<stop offset="1" stop-color="#3D3D3D"/>
</linearGradient>
</defs>
</svg>
