<svg width="260" height="39" viewBox="0 0 260 39" fill="none" xmlns="http://www.w3.org/2000/svg">
<path d="M8.86 3.26C7.92667 3.26 7.21333 3.55333 6.72 4.14C6.22667 4.72667 5.98 5.53333 5.98 6.56C5.98 7.29333 6.02 8 6.1 8.68C6.18 9.34666 6.26 10 6.34 10.64C6.43333 11.2667 6.52 11.8867 6.6 12.5C6.68 13.1133 6.72 13.7333 6.72 14.36C6.72 14.8533 6.64667 15.3267 6.5 15.78C6.36667 16.2333 6.16667 16.6467 5.9 17.02C5.63333 17.3933 5.30667 17.72 4.92 18C4.54667 18.28 4.12 18.4867 3.64 18.62C4.12 18.7667 4.54667 18.98 4.92 19.26C5.30667 19.5267 5.63333 19.8467 5.9 20.22C6.16667 20.5933 6.36667 21.0067 6.5 21.46C6.64667 21.9133 6.72 22.3867 6.72 22.88C6.72 23.5067 6.68 24.1267 6.6 24.74C6.52 25.3533 6.43333 25.98 6.34 26.62C6.26 27.2467 6.18 27.9 6.1 28.58C6.02 29.2467 5.98 29.9467 5.98 30.68C5.98 31.6933 6.22667 32.4933 6.72 33.08C7.21333 33.6667 7.92667 33.96 8.86 33.96H9.04C9.13333 33.96 9.24 33.98 9.36 34.02C9.48 34.06 9.59333 34.12 9.7 34.2C9.82 34.28 9.91333 34.3867 9.98 34.52C10.06 34.6533 10.1 34.8067 10.1 34.98V37.16H9.04C7.78667 37.16 6.69333 36.9933 5.76 36.66C4.84 36.34 4.07333 35.88 3.46 35.28C2.86 34.6933 2.41333 33.98 2.12 33.14C1.82667 32.3133 1.68 31.3933 1.68 30.38C1.68 29.7267 1.72 29.0867 1.8 28.46C1.89333 27.82 1.99333 27.1867 2.1 26.56C2.22 25.9333 2.32 25.3067 2.4 24.68C2.49333 24.0533 2.54 23.4267 2.54 22.8C2.54 21.9867 2.34667 21.3267 1.96 20.82C1.58667 20.3 0.98 20.04 0.14 20.04V17.18C0.98 17.18 1.58667 16.9267 1.96 16.42C2.34667 15.9 2.54 15.2333 2.54 14.42C2.54 13.7933 2.49333 13.1733 2.4 12.56C2.32 11.9333 2.22 11.3067 2.1 10.68C1.99333 10.0533 1.89333 9.42667 1.8 8.8C1.72 8.16 1.68 7.51333 1.68 6.86C1.68 5.84667 1.82667 4.92666 2.12 4.1C2.41333 3.26 2.86 2.54 3.46 1.94C4.07333 1.34 4.84 0.879999 5.76 0.559999C6.69333 0.226665 7.78667 0.059999 9.04 0.059999H10.1V2.26C10.1 2.43333 10.06 2.58667 9.98 2.72C9.91333 2.84 9.82 2.94 9.7 3.02C9.59333 3.1 9.48 3.16 9.36 3.2C9.24 3.24 9.13333 3.26 9.04 3.26H8.86ZM148.133 2.08L136.453 31H131.593L119.913 2.08H124.233C124.699 2.08 125.079 2.19333 125.373 2.42C125.666 2.64667 125.886 2.94 126.033 3.3L132.853 20.94C133.079 21.5133 133.293 22.1467 133.493 22.84C133.706 23.52 133.906 24.2333 134.093 24.98C134.253 24.2333 134.426 23.52 134.613 22.84C134.799 22.1467 135.006 21.5133 135.233 20.94L142.013 3.3C142.119 2.99333 142.326 2.71333 142.633 2.46C142.953 2.20667 143.339 2.08 143.793 2.08H148.133ZM158.139 22.24C156.713 22.3067 155.513 22.4333 154.539 22.62C153.566 22.7933 152.786 23.02 152.199 23.3C151.613 23.58 151.193 23.9067 150.939 24.28C150.686 24.6533 150.559 25.06 150.559 25.5C150.559 26.3667 150.813 26.9867 151.319 27.36C151.839 27.7333 152.513 27.92 153.339 27.92C154.353 27.92 155.226 27.74 155.959 27.38C156.706 27.0067 157.433 26.4467 158.139 25.7V22.24ZM146.819 13.34C149.179 11.18 152.019 10.1 155.339 10.1C156.539 10.1 157.613 10.3 158.559 10.7C159.506 11.0867 160.306 11.6333 160.959 12.34C161.613 13.0333 162.106 13.8667 162.439 14.84C162.786 15.8133 162.959 16.88 162.959 18.04V31H160.719C160.253 31 159.893 30.9333 159.639 30.8C159.386 30.6533 159.186 30.3667 159.039 29.94L158.599 28.46C158.079 28.9267 157.573 29.34 157.079 29.7C156.586 30.0467 156.073 30.34 155.539 30.58C155.006 30.82 154.433 31 153.819 31.12C153.219 31.2533 152.553 31.32 151.819 31.32C150.953 31.32 150.153 31.2067 149.419 30.98C148.686 30.74 148.053 30.3867 147.519 29.92C146.986 29.4533 146.573 28.8733 146.279 28.18C145.986 27.4867 145.839 26.68 145.839 25.76C145.839 25.24 145.926 24.7267 146.099 24.22C146.273 23.7 146.553 23.2067 146.939 22.74C147.339 22.2733 147.853 21.8333 148.479 21.42C149.106 21.0067 149.873 20.6467 150.779 20.34C151.699 20.0333 152.766 19.7867 153.979 19.6C155.193 19.4 156.579 19.28 158.139 19.24V18.04C158.139 16.6667 157.846 15.6533 157.259 15C156.673 14.3333 155.826 14 154.719 14C153.919 14 153.253 14.0933 152.719 14.28C152.199 14.4667 151.739 14.68 151.339 14.92C150.939 15.1467 150.573 15.3533 150.239 15.54C149.919 15.7267 149.559 15.82 149.159 15.82C148.813 15.82 148.519 15.7333 148.279 15.56C148.039 15.3733 147.846 15.16 147.699 14.92L146.819 13.34ZM172.272 14.04C172.912 12.8133 173.672 11.8533 174.552 11.16C175.432 10.4533 176.472 10.1 177.672 10.1C178.619 10.1 179.379 10.3067 179.952 10.72L179.632 14.42C179.565 14.66 179.465 14.8333 179.332 14.94C179.212 15.0333 179.045 15.08 178.832 15.08C178.632 15.08 178.332 15.0467 177.932 14.98C177.545 14.9133 177.165 14.88 176.792 14.88C176.245 14.88 175.759 14.96 175.332 15.12C174.905 15.28 174.519 15.5133 174.172 15.82C173.839 16.1133 173.539 16.4733 173.272 16.9C173.019 17.3267 172.779 17.8133 172.552 18.36V31H167.612V10.48H170.512C171.019 10.48 171.372 10.5733 171.572 10.76C171.772 10.9333 171.905 11.2533 171.972 11.72L172.272 14.04ZM189.799 20.24C190.413 20.24 190.946 20.16 191.399 20C191.853 19.8267 192.226 19.5933 192.519 19.3C192.826 19.0067 193.053 18.6533 193.199 18.24C193.359 17.8267 193.439 17.3733 193.439 16.88C193.439 15.8667 193.133 15.0667 192.519 14.48C191.919 13.88 191.013 13.58 189.799 13.58C188.586 13.58 187.673 13.88 187.059 14.48C186.459 15.0667 186.159 15.8667 186.159 16.88C186.159 17.36 186.233 17.8067 186.379 18.22C186.539 18.6333 186.766 18.9933 187.059 19.3C187.366 19.5933 187.746 19.8267 188.199 20C188.666 20.16 189.199 20.24 189.799 20.24ZM195.379 31.92C195.379 31.52 195.259 31.1933 195.019 30.94C194.779 30.6867 194.453 30.4933 194.039 30.36C193.626 30.2133 193.139 30.1067 192.579 30.04C192.033 29.9733 191.446 29.9267 190.819 29.9C190.206 29.86 189.566 29.8267 188.899 29.8C188.246 29.7733 187.606 29.72 186.979 29.64C186.433 29.9467 185.986 30.3067 185.639 30.72C185.306 31.1333 185.139 31.6133 185.139 32.16C185.139 32.52 185.226 32.8533 185.399 33.16C185.586 33.48 185.873 33.7533 186.259 33.98C186.659 34.2067 187.173 34.38 187.799 34.5C188.426 34.6333 189.193 34.7 190.099 34.7C191.019 34.7 191.813 34.6267 192.479 34.48C193.146 34.3467 193.693 34.1533 194.119 33.9C194.559 33.66 194.879 33.3667 195.079 33.02C195.279 32.6867 195.379 32.32 195.379 31.92ZM200.299 11.18V13.02C200.299 13.6067 199.946 13.9667 199.239 14.1L197.399 14.44C197.679 15.1467 197.819 15.92 197.819 16.76C197.819 17.7733 197.613 18.6933 197.199 19.52C196.799 20.3333 196.239 21.0267 195.519 21.6C194.799 22.1733 193.946 22.62 192.959 22.94C191.986 23.2467 190.933 23.4 189.799 23.4C189.399 23.4 189.013 23.38 188.639 23.34C188.266 23.3 187.899 23.2467 187.539 23.18C186.899 23.5667 186.579 24 186.579 24.48C186.579 24.8933 186.766 25.2 187.139 25.4C187.526 25.5867 188.033 25.72 188.659 25.8C189.286 25.88 189.999 25.9333 190.799 25.96C191.599 25.9733 192.419 26.0133 193.259 26.08C194.099 26.1467 194.919 26.2667 195.719 26.44C196.519 26.6 197.233 26.86 197.859 27.22C198.486 27.58 198.986 28.0733 199.359 28.7C199.746 29.3133 199.939 30.1067 199.939 31.08C199.939 31.9867 199.713 32.8667 199.259 33.72C198.819 34.5733 198.173 35.3333 197.319 36C196.479 36.6667 195.439 37.2 194.199 37.6C192.973 38.0133 191.573 38.22 189.999 38.22C188.453 38.22 187.106 38.0667 185.959 37.76C184.813 37.4667 183.859 37.0667 183.099 36.56C182.339 36.0667 181.773 35.4933 181.399 34.84C181.026 34.1867 180.839 33.5067 180.839 32.8C180.839 31.84 181.126 31.04 181.699 30.4C182.286 29.7467 183.086 29.2267 184.099 28.84C183.553 28.56 183.119 28.1867 182.799 27.72C182.479 27.2533 182.319 26.64 182.319 25.88C182.319 25.5733 182.373 25.26 182.479 24.94C182.599 24.6067 182.766 24.28 182.979 23.96C183.206 23.64 183.486 23.34 183.819 23.06C184.153 22.7667 184.546 22.5067 184.999 22.28C183.959 21.72 183.139 20.9733 182.539 20.04C181.953 19.1067 181.659 18.0133 181.659 16.76C181.659 15.7467 181.859 14.8333 182.259 14.02C182.673 13.1933 183.239 12.4933 183.959 11.92C184.693 11.3333 185.553 10.8867 186.539 10.58C187.539 10.2733 188.626 10.12 189.799 10.12C190.679 10.12 191.506 10.2133 192.279 10.4C193.053 10.5733 193.759 10.8333 194.399 11.18H200.299ZM214.272 22.24C212.846 22.3067 211.646 22.4333 210.672 22.62C209.699 22.7933 208.919 23.02 208.332 23.3C207.746 23.58 207.326 23.9067 207.072 24.28C206.819 24.6533 206.692 25.06 206.692 25.5C206.692 26.3667 206.946 26.9867 207.452 27.36C207.972 27.7333 208.646 27.92 209.472 27.92C210.486 27.92 211.359 27.74 212.092 27.38C212.839 27.0067 213.566 26.4467 214.272 25.7V22.24ZM202.952 13.34C205.312 11.18 208.152 10.1 211.472 10.1C212.672 10.1 213.746 10.3 214.692 10.7C215.639 11.0867 216.439 11.6333 217.092 12.34C217.746 13.0333 218.239 13.8667 218.572 14.84C218.919 15.8133 219.092 16.88 219.092 18.04V31H216.852C216.386 31 216.026 30.9333 215.772 30.8C215.519 30.6533 215.319 30.3667 215.172 29.94L214.732 28.46C214.212 28.9267 213.706 29.34 213.212 29.7C212.719 30.0467 212.206 30.34 211.672 30.58C211.139 30.82 210.566 31 209.952 31.12C209.352 31.2533 208.686 31.32 207.952 31.32C207.086 31.32 206.286 31.2067 205.552 30.98C204.819 30.74 204.186 30.3867 203.652 29.92C203.119 29.4533 202.706 28.8733 202.412 28.18C202.119 27.4867 201.972 26.68 201.972 25.76C201.972 25.24 202.059 24.7267 202.232 24.22C202.406 23.7 202.686 23.2067 203.072 22.74C203.472 22.2733 203.986 21.8333 204.612 21.42C205.239 21.0067 206.006 20.6467 206.912 20.34C207.832 20.0333 208.899 19.7867 210.112 19.6C211.326 19.4 212.712 19.28 214.272 19.24V18.04C214.272 16.6667 213.979 15.6533 213.392 15C212.806 14.3333 211.959 14 210.852 14C210.052 14 209.386 14.0933 208.852 14.28C208.332 14.4667 207.872 14.68 207.472 14.92C207.072 15.1467 206.706 15.3533 206.372 15.54C206.052 15.7267 205.692 15.82 205.292 15.82C204.946 15.82 204.652 15.7333 204.412 15.56C204.172 15.3733 203.979 15.16 203.832 14.92L202.952 13.34ZM236.265 14.48C236.131 14.6933 235.991 14.8467 235.845 14.94C235.698 15.02 235.511 15.06 235.285 15.06C235.045 15.06 234.785 14.9933 234.505 14.86C234.238 14.7267 233.925 14.58 233.565 14.42C233.205 14.2467 232.791 14.0933 232.325 13.96C231.871 13.8267 231.331 13.76 230.705 13.76C229.731 13.76 228.965 13.9667 228.405 14.38C227.858 14.7933 227.585 15.3333 227.585 16C227.585 16.44 227.725 16.8133 228.005 17.12C228.298 17.4133 228.678 17.6733 229.145 17.9C229.625 18.1267 230.165 18.3333 230.765 18.52C231.365 18.6933 231.971 18.8867 232.585 19.1C233.211 19.3133 233.825 19.56 234.425 19.84C235.025 20.1067 235.558 20.4533 236.025 20.88C236.505 21.2933 236.885 21.7933 237.165 22.38C237.458 22.9667 237.605 23.6733 237.605 24.5C237.605 25.4867 237.425 26.4 237.065 27.24C236.718 28.0667 236.198 28.7867 235.505 29.4C234.811 30 233.951 30.4733 232.925 30.82C231.911 31.1533 230.738 31.32 229.405 31.32C228.698 31.32 228.005 31.2533 227.325 31.12C226.658 31 226.011 30.8267 225.385 30.6C224.771 30.3733 224.198 30.1067 223.665 29.8C223.145 29.4933 222.685 29.16 222.285 28.8L223.425 26.92C223.571 26.6933 223.745 26.52 223.945 26.4C224.145 26.28 224.398 26.22 224.705 26.22C225.011 26.22 225.298 26.3067 225.565 26.48C225.845 26.6533 226.165 26.84 226.525 27.04C226.885 27.24 227.305 27.4267 227.785 27.6C228.278 27.7733 228.898 27.86 229.645 27.86C230.231 27.86 230.731 27.7933 231.145 27.66C231.571 27.5133 231.918 27.3267 232.185 27.1C232.465 26.8733 232.665 26.6133 232.785 26.32C232.918 26.0133 232.985 25.7 232.985 25.38C232.985 24.9 232.838 24.5067 232.545 24.2C232.265 23.8933 231.885 23.6267 231.405 23.4C230.938 23.1733 230.398 22.9733 229.785 22.8C229.185 22.6133 228.565 22.4133 227.925 22.2C227.298 21.9867 226.678 21.74 226.065 21.46C225.465 21.1667 224.925 20.8 224.445 20.36C223.978 19.92 223.598 19.38 223.305 18.74C223.025 18.1 222.885 17.3267 222.885 16.42C222.885 15.58 223.051 14.78 223.385 14.02C223.718 13.26 224.205 12.6 224.845 12.04C225.498 11.4667 226.305 11.0133 227.265 10.68C228.238 10.3333 229.358 10.16 230.625 10.16C232.038 10.16 233.325 10.3933 234.485 10.86C235.645 11.3267 236.611 11.94 237.385 12.7L236.265 14.48ZM259.709 20.04C258.869 20.04 258.256 20.3 257.869 20.82C257.496 21.3267 257.309 21.9867 257.309 22.8C257.309 23.4267 257.349 24.0533 257.429 24.68C257.523 25.3067 257.623 25.9333 257.729 26.56C257.849 27.1867 257.949 27.82 258.029 28.46C258.123 29.0867 258.169 29.7267 258.169 30.38C258.169 31.3933 258.023 32.3133 257.729 33.14C257.436 33.98 256.983 34.6933 256.369 35.28C255.769 35.88 255.003 36.34 254.069 36.66C253.149 36.9933 252.063 37.16 250.809 37.16H249.749V34.98C249.749 34.8067 249.783 34.6533 249.849 34.52C249.929 34.3867 250.023 34.28 250.129 34.2C250.249 34.12 250.369 34.06 250.489 34.02C250.609 33.98 250.716 33.96 250.809 33.96H250.989C251.923 33.96 252.629 33.6667 253.109 33.08C253.603 32.4933 253.849 31.6933 253.849 30.68C253.849 29.9467 253.809 29.2467 253.729 28.58C253.663 27.9 253.583 27.2467 253.489 26.62C253.396 25.98 253.309 25.3533 253.229 24.74C253.163 24.1267 253.129 23.5067 253.129 22.88C253.129 22.3867 253.196 21.9133 253.329 21.46C253.476 21.0067 253.683 20.5933 253.949 20.22C254.216 19.8467 254.536 19.5267 254.909 19.26C255.296 18.98 255.729 18.7667 256.209 18.62C255.729 18.4867 255.296 18.28 254.909 18C254.536 17.72 254.216 17.3933 253.949 17.02C253.683 16.6467 253.476 16.2333 253.329 15.78C253.196 15.3267 253.129 14.8533 253.129 14.36C253.129 13.7333 253.163 13.1133 253.229 12.5C253.309 11.8867 253.396 11.2667 253.489 10.64C253.583 10 253.663 9.34666 253.729 8.68C253.809 8 253.849 7.29333 253.849 6.56C253.849 5.53333 253.603 4.72667 253.109 4.14C252.629 3.55333 251.923 3.26 250.989 3.26H250.809C250.716 3.26 250.609 3.24 250.489 3.2C250.369 3.16 250.249 3.1 250.129 3.02C250.023 2.94 249.929 2.84 249.849 2.72C249.783 2.58667 249.749 2.43333 249.749 2.26V0.059999H250.809C252.063 0.059999 253.149 0.226665 254.069 0.559999C255.003 0.879999 255.769 1.34 256.369 1.94C256.983 2.54 257.436 3.26 257.729 4.1C258.023 4.92666 258.169 5.84667 258.169 6.86C258.169 7.51333 258.123 8.16 258.029 8.8C257.949 9.42667 257.849 10.0533 257.729 10.68C257.623 11.3067 257.523 11.9333 257.429 12.56C257.349 13.1733 257.309 13.7933 257.309 14.42C257.309 15.2333 257.496 15.9 257.869 16.42C258.256 16.9267 258.869 17.18 259.709 17.18V20.04Z" fill="white"/>
<path d="M41.0731 10.48V31H38.0531C37.3998 31 36.9865 30.7 36.8131 30.1L36.4731 28.46C35.6331 29.3133 34.7065 30.0067 33.6931 30.54C32.6798 31.06 31.4865 31.32 30.1131 31.32C28.9931 31.32 27.9998 31.1333 27.1331 30.76C26.2798 30.3733 25.5598 29.8333 24.9731 29.14C24.3865 28.4467 23.9398 27.6267 23.6331 26.68C23.3398 25.72 23.1931 24.6667 23.1931 23.52V10.48H28.1331V23.52C28.1331 24.7733 28.4198 25.7467 28.9931 26.44C29.5798 27.12 30.4531 27.46 31.6131 27.46C32.4665 27.46 33.2665 27.2733 34.0131 26.9C34.7598 26.5133 35.4665 25.9867 36.1331 25.32V10.48H41.0731ZM50.9713 1.28V31H46.0312V1.28H50.9713ZM61.0131 10.48V31H56.0531V10.48H61.0131ZM61.6931 4.5C61.6931 4.92666 61.6065 5.32666 61.4331 5.7C61.2598 6.07333 61.0265 6.4 60.7331 6.68C60.4531 6.96 60.1198 7.18667 59.7331 7.36C59.3465 7.52 58.9331 7.6 58.4931 7.6C58.0665 7.6 57.6598 7.52 57.2731 7.36C56.8998 7.18667 56.5731 6.96 56.2931 6.68C56.0131 6.4 55.7865 6.07333 55.6131 5.7C55.4531 5.32666 55.3731 4.92666 55.3731 4.5C55.3731 4.06 55.4531 3.64667 55.6131 3.26C55.7865 2.87333 56.0131 2.54 56.2931 2.26C56.5731 1.98 56.8998 1.76 57.2731 1.6C57.6598 1.42667 58.0665 1.34 58.4931 1.34C58.9331 1.34 59.3465 1.42667 59.7331 1.6C60.1198 1.76 60.4531 1.98 60.7331 2.26C61.0265 2.54 61.2598 2.87333 61.4331 3.26C61.6065 3.64667 61.6931 4.06 61.6931 4.5ZM78.5694 14.48C78.436 14.6933 78.296 14.8467 78.1494 14.94C78.0027 15.02 77.816 15.06 77.5894 15.06C77.3494 15.06 77.0894 14.9933 76.8094 14.86C76.5427 14.7267 76.2294 14.58 75.8694 14.42C75.5094 14.2467 75.096 14.0933 74.6294 13.96C74.176 13.8267 73.636 13.76 73.0094 13.76C72.036 13.76 71.2694 13.9667 70.7094 14.38C70.1627 14.7933 69.8894 15.3333 69.8894 16C69.8894 16.44 70.0294 16.8133 70.3094 17.12C70.6027 17.4133 70.9827 17.6733 71.4494 17.9C71.9294 18.1267 72.4694 18.3333 73.0694 18.52C73.6694 18.6933 74.276 18.8867 74.8894 19.1C75.516 19.3133 76.1294 19.56 76.7294 19.84C77.3294 20.1067 77.8627 20.4533 78.3294 20.88C78.8094 21.2933 79.1894 21.7933 79.4694 22.38C79.7627 22.9667 79.9094 23.6733 79.9094 24.5C79.9094 25.4867 79.7294 26.4 79.3694 27.24C79.0227 28.0667 78.5027 28.7867 77.8094 29.4C77.116 30 76.256 30.4733 75.2294 30.82C74.216 31.1533 73.0427 31.32 71.7094 31.32C71.0027 31.32 70.3094 31.2533 69.6294 31.12C68.9627 31 68.316 30.8267 67.6894 30.6C67.076 30.3733 66.5027 30.1067 65.9694 29.8C65.4494 29.4933 64.9894 29.16 64.5894 28.8L65.7294 26.92C65.876 26.6933 66.0494 26.52 66.2494 26.4C66.4494 26.28 66.7027 26.22 67.0094 26.22C67.316 26.22 67.6027 26.3067 67.8694 26.48C68.1494 26.6533 68.4694 26.84 68.8294 27.04C69.1894 27.24 69.6094 27.4267 70.0894 27.6C70.5827 27.7733 71.2027 27.86 71.9494 27.86C72.536 27.86 73.036 27.7933 73.4494 27.66C73.876 27.5133 74.2227 27.3267 74.4894 27.1C74.7694 26.8733 74.9694 26.6133 75.0894 26.32C75.2227 26.0133 75.2894 25.7 75.2894 25.38C75.2894 24.9 75.1427 24.5067 74.8494 24.2C74.5694 23.8933 74.1894 23.6267 73.7094 23.4C73.2427 23.1733 72.7027 22.9733 72.0894 22.8C71.4894 22.6133 70.8694 22.4133 70.2294 22.2C69.6027 21.9867 68.9827 21.74 68.3694 21.46C67.7694 21.1667 67.2294 20.8 66.7494 20.36C66.2827 19.92 65.9027 19.38 65.6094 18.74C65.3294 18.1 65.1894 17.3267 65.1894 16.42C65.1894 15.58 65.356 14.78 65.6894 14.02C66.0227 13.26 66.5094 12.6 67.1494 12.04C67.8027 11.4667 68.6094 11.0133 69.5694 10.68C70.5427 10.3333 71.6627 10.16 72.9294 10.16C74.3427 10.16 75.6294 10.3933 76.7894 10.86C77.9494 11.3267 78.916 11.94 79.6894 12.7L78.5694 14.48ZM96.8475 18.38C96.8475 17.74 96.7542 17.14 96.5675 16.58C96.3942 16.0067 96.1275 15.5067 95.7675 15.08C95.4075 14.6533 94.9475 14.32 94.3875 14.08C93.8408 13.8267 93.2008 13.7 92.4675 13.7C91.0408 13.7 89.9142 14.1067 89.0875 14.92C88.2742 15.7333 87.7542 16.8867 87.5275 18.38H96.8475ZM87.4275 21.36C87.5075 22.4133 87.6942 23.3267 87.9875 24.1C88.2808 24.86 88.6675 25.4933 89.1475 26C89.6275 26.4933 90.1942 26.8667 90.8475 27.12C91.5142 27.36 92.2475 27.48 93.0475 27.48C93.8475 27.48 94.5342 27.3867 95.1075 27.2C95.6942 27.0133 96.2008 26.8067 96.6275 26.58C97.0675 26.3533 97.4475 26.1467 97.7675 25.96C98.1008 25.7733 98.4208 25.68 98.7275 25.68C99.1408 25.68 99.4475 25.8333 99.6475 26.14L101.068 27.94C100.521 28.58 99.9075 29.12 99.2275 29.56C98.5475 29.9867 97.8342 30.3333 97.0875 30.6C96.3542 30.8533 95.6008 31.0333 94.8275 31.14C94.0675 31.2467 93.3275 31.3 92.6075 31.3C91.1808 31.3 89.8542 31.0667 88.6275 30.6C87.4008 30.12 86.3342 29.42 85.4275 28.5C84.5208 27.5667 83.8075 26.42 83.2875 25.06C82.7675 23.6867 82.5075 22.1 82.5075 20.3C82.5075 18.9 82.7342 17.5867 83.1875 16.36C83.6408 15.12 84.2875 14.0467 85.1275 13.14C85.9808 12.22 87.0142 11.4933 88.2275 10.96C89.4542 10.4267 90.8342 10.16 92.3675 10.16C93.6608 10.16 94.8542 10.3667 95.9475 10.78C97.0408 11.1933 97.9808 11.8 98.7675 12.6C99.5542 13.3867 100.168 14.36 100.608 15.52C101.061 16.6667 101.287 17.98 101.287 19.46C101.287 20.2067 101.208 20.7133 101.048 20.98C100.888 21.2333 100.581 21.36 100.128 21.36H87.4275ZM117.515 14.48C117.381 14.6933 117.241 14.8467 117.095 14.94C116.948 15.02 116.761 15.06 116.535 15.06C116.295 15.06 116.035 14.9933 115.755 14.86C115.488 14.7267 115.175 14.58 114.815 14.42C114.455 14.2467 114.041 14.0933 113.575 13.96C113.121 13.8267 112.581 13.76 111.955 13.76C110.981 13.76 110.215 13.9667 109.655 14.38C109.108 14.7933 108.835 15.3333 108.835 16C108.835 16.44 108.975 16.8133 109.255 17.12C109.548 17.4133 109.928 17.6733 110.395 17.9C110.875 18.1267 111.415 18.3333 112.015 18.52C112.615 18.6933 113.221 18.8867 113.835 19.1C114.461 19.3133 115.075 19.56 115.675 19.84C116.275 20.1067 116.808 20.4533 117.275 20.88C117.755 21.2933 118.135 21.7933 118.415 22.38C118.708 22.9667 118.855 23.6733 118.855 24.5C118.855 25.4867 118.675 26.4 118.315 27.24C117.968 28.0667 117.448 28.7867 116.755 29.4C116.061 30 115.201 30.4733 114.175 30.82C113.161 31.1533 111.988 31.32 110.655 31.32C109.948 31.32 109.255 31.2533 108.575 31.12C107.908 31 107.261 30.8267 106.635 30.6C106.021 30.3733 105.448 30.1067 104.915 29.8C104.395 29.4933 103.935 29.16 103.535 28.8L104.675 26.92C104.821 26.6933 104.995 26.52 105.195 26.4C105.395 26.28 105.648 26.22 105.955 26.22C106.261 26.22 106.548 26.3067 106.815 26.48C107.095 26.6533 107.415 26.84 107.775 27.04C108.135 27.24 108.555 27.4267 109.035 27.6C109.528 27.7733 110.148 27.86 110.895 27.86C111.481 27.86 111.981 27.7933 112.395 27.66C112.821 27.5133 113.168 27.3267 113.435 27.1C113.715 26.8733 113.915 26.6133 114.035 26.32C114.168 26.0133 114.235 25.7 114.235 25.38C114.235 24.9 114.088 24.5067 113.795 24.2C113.515 23.8933 113.135 23.6267 112.655 23.4C112.188 23.1733 111.648 22.9733 111.035 22.8C110.435 22.6133 109.815 22.4133 109.175 22.2C108.548 21.9867 107.928 21.74 107.315 21.46C106.715 21.1667 106.175 20.8 105.695 20.36C105.228 19.92 104.848 19.38 104.555 18.74C104.275 18.1 104.135 17.3267 104.135 16.42C104.135 15.58 104.301 14.78 104.635 14.02C104.968 13.26 105.455 12.6 106.095 12.04C106.748 11.4667 107.555 11.0133 108.515 10.68C109.488 10.3333 110.608 10.16 111.875 10.16C113.288 10.16 114.575 10.3933 115.735 10.86C116.895 11.3267 117.861 11.94 118.635 12.7L117.515 14.48Z" fill="#049DD9"/>
</svg>
