<svg width="290" height="48" viewBox="0 0 290 48" fill="none" xmlns="http://www.w3.org/2000/svg">
<path d="M8.86 12.26C7.92667 12.26 7.21333 12.5533 6.72 13.14C6.22667 13.7267 5.98 14.5333 5.98 15.56C5.98 16.2933 6.02 17 6.1 17.68C6.18 18.3467 6.26 19 6.34 19.64C6.43333 20.2667 6.52 20.8867 6.6 21.5C6.68 22.1133 6.72 22.7333 6.72 23.36C6.72 23.8533 6.64667 24.3267 6.5 24.78C6.36667 25.2333 6.16667 25.6467 5.9 26.02C5.63333 26.3933 5.30667 26.72 4.92 27C4.54667 27.28 4.12 27.4867 3.64 27.62C4.12 27.7667 4.54667 27.98 4.92 28.26C5.30667 28.5267 5.63333 28.8467 5.9 29.22C6.16667 29.5933 6.36667 30.0067 6.5 30.46C6.64667 30.9133 6.72 31.3867 6.72 31.88C6.72 32.5067 6.68 33.1267 6.6 33.74C6.52 34.3533 6.43333 34.98 6.34 35.62C6.26 36.2467 6.18 36.9 6.1 37.58C6.02 38.2467 5.98 38.9467 5.98 39.68C5.98 40.6933 6.22667 41.4933 6.72 42.08C7.21333 42.6667 7.92667 42.96 8.86 42.96H9.04C9.13333 42.96 9.24 42.98 9.36 43.02C9.48 43.06 9.59333 43.12 9.7 43.2C9.82 43.28 9.91333 43.3867 9.98 43.52C10.06 43.6533 10.1 43.8067 10.1 43.98V46.16H9.04C7.78667 46.16 6.69333 45.9933 5.76 45.66C4.84 45.34 4.07333 44.88 3.46 44.28C2.86 43.6933 2.41333 42.98 2.12 42.14C1.82667 41.3133 1.68 40.3933 1.68 39.38C1.68 38.7267 1.72 38.0867 1.8 37.46C1.89333 36.82 1.99333 36.1867 2.1 35.56C2.22 34.9333 2.32 34.3067 2.4 33.68C2.49333 33.0533 2.54 32.4267 2.54 31.8C2.54 30.9867 2.34667 30.3267 1.96 29.82C1.58667 29.3 0.98 29.04 0.14 29.04V26.18C0.98 26.18 1.58667 25.9267 1.96 25.42C2.34667 24.9 2.54 24.2333 2.54 23.42C2.54 22.7933 2.49333 22.1733 2.4 21.56C2.32 20.9333 2.22 20.3067 2.1 19.68C1.99333 19.0533 1.89333 18.4267 1.8 17.8C1.72 17.16 1.68 16.5133 1.68 15.86C1.68 14.8467 1.82667 13.9267 2.12 13.1C2.41333 12.26 2.86 11.54 3.46 10.94C4.07333 10.34 4.84 9.88 5.76 9.56C6.69333 9.22667 7.78667 9.06 9.04 9.06H10.1V11.26C10.1 11.4333 10.06 11.5867 9.98 11.72C9.91333 11.84 9.82 11.94 9.7 12.02C9.59333 12.1 9.48 12.16 9.36 12.2C9.24 12.24 9.13333 12.26 9.04 12.26H8.86ZM148.133 11.08L136.453 40H131.593L119.913 11.08H124.233C124.699 11.08 125.079 11.1933 125.373 11.42C125.666 11.6467 125.886 11.94 126.033 12.3L132.853 29.94C133.079 30.5133 133.293 31.1467 133.493 31.84C133.706 32.52 133.906 33.2333 134.093 33.98C134.253 33.2333 134.426 32.52 134.613 31.84C134.799 31.1467 135.006 30.5133 135.233 29.94L142.013 12.3C142.119 11.9933 142.326 11.7133 142.633 11.46C142.953 11.2067 143.339 11.08 143.793 11.08H148.133ZM158.139 31.24C156.713 31.3067 155.513 31.4333 154.539 31.62C153.566 31.7933 152.786 32.02 152.199 32.3C151.613 32.58 151.193 32.9067 150.939 33.28C150.686 33.6533 150.559 34.06 150.559 34.5C150.559 35.3667 150.813 35.9867 151.319 36.36C151.839 36.7333 152.513 36.92 153.339 36.92C154.353 36.92 155.226 36.74 155.959 36.38C156.706 36.0067 157.433 35.4467 158.139 34.7V31.24ZM146.819 22.34C149.179 20.18 152.019 19.1 155.339 19.1C156.539 19.1 157.613 19.3 158.559 19.7C159.506 20.0867 160.306 20.6333 160.959 21.34C161.613 22.0333 162.106 22.8667 162.439 23.84C162.786 24.8133 162.959 25.88 162.959 27.04V40H160.719C160.253 40 159.893 39.9333 159.639 39.8C159.386 39.6533 159.186 39.3667 159.039 38.94L158.599 37.46C158.079 37.9267 157.573 38.34 157.079 38.7C156.586 39.0467 156.073 39.34 155.539 39.58C155.006 39.82 154.433 40 153.819 40.12C153.219 40.2533 152.553 40.32 151.819 40.32C150.953 40.32 150.153 40.2067 149.419 39.98C148.686 39.74 148.053 39.3867 147.519 38.92C146.986 38.4533 146.573 37.8733 146.279 37.18C145.986 36.4867 145.839 35.68 145.839 34.76C145.839 34.24 145.926 33.7267 146.099 33.22C146.273 32.7 146.553 32.2067 146.939 31.74C147.339 31.2733 147.853 30.8333 148.479 30.42C149.106 30.0067 149.873 29.6467 150.779 29.34C151.699 29.0333 152.766 28.7867 153.979 28.6C155.193 28.4 156.579 28.28 158.139 28.24V27.04C158.139 25.6667 157.846 24.6533 157.259 24C156.673 23.3333 155.826 23 154.719 23C153.919 23 153.253 23.0933 152.719 23.28C152.199 23.4667 151.739 23.68 151.339 23.92C150.939 24.1467 150.573 24.3533 150.239 24.54C149.919 24.7267 149.559 24.82 149.159 24.82C148.813 24.82 148.519 24.7333 148.279 24.56C148.039 24.3733 147.846 24.16 147.699 23.92L146.819 22.34ZM172.272 23.04C172.912 21.8133 173.672 20.8533 174.552 20.16C175.432 19.4533 176.472 19.1 177.672 19.1C178.619 19.1 179.379 19.3067 179.952 19.72L179.632 23.42C179.565 23.66 179.465 23.8333 179.332 23.94C179.212 24.0333 179.045 24.08 178.832 24.08C178.632 24.08 178.332 24.0467 177.932 23.98C177.545 23.9133 177.165 23.88 176.792 23.88C176.245 23.88 175.759 23.96 175.332 24.12C174.905 24.28 174.519 24.5133 174.172 24.82C173.839 25.1133 173.539 25.4733 173.272 25.9C173.019 26.3267 172.779 26.8133 172.552 27.36V40H167.612V19.48H170.512C171.019 19.48 171.372 19.5733 171.572 19.76C171.772 19.9333 171.905 20.2533 171.972 20.72L172.272 23.04ZM189.799 29.24C190.413 29.24 190.946 29.16 191.399 29C191.853 28.8267 192.226 28.5933 192.519 28.3C192.826 28.0067 193.053 27.6533 193.199 27.24C193.359 26.8267 193.439 26.3733 193.439 25.88C193.439 24.8667 193.133 24.0667 192.519 23.48C191.919 22.88 191.013 22.58 189.799 22.58C188.586 22.58 187.673 22.88 187.059 23.48C186.459 24.0667 186.159 24.8667 186.159 25.88C186.159 26.36 186.233 26.8067 186.379 27.22C186.539 27.6333 186.766 27.9933 187.059 28.3C187.366 28.5933 187.746 28.8267 188.199 29C188.666 29.16 189.199 29.24 189.799 29.24ZM195.379 40.92C195.379 40.52 195.259 40.1933 195.019 39.94C194.779 39.6867 194.453 39.4933 194.039 39.36C193.626 39.2133 193.139 39.1067 192.579 39.04C192.033 38.9733 191.446 38.9267 190.819 38.9C190.206 38.86 189.566 38.8267 188.899 38.8C188.246 38.7733 187.606 38.72 186.979 38.64C186.433 38.9467 185.986 39.3067 185.639 39.72C185.306 40.1333 185.139 40.6133 185.139 41.16C185.139 41.52 185.226 41.8533 185.399 42.16C185.586 42.48 185.873 42.7533 186.259 42.98C186.659 43.2067 187.173 43.38 187.799 43.5C188.426 43.6333 189.193 43.7 190.099 43.7C191.019 43.7 191.813 43.6267 192.479 43.48C193.146 43.3467 193.693 43.1533 194.119 42.9C194.559 42.66 194.879 42.3667 195.079 42.02C195.279 41.6867 195.379 41.32 195.379 40.92ZM200.299 20.18V22.02C200.299 22.6067 199.946 22.9667 199.239 23.1L197.399 23.44C197.679 24.1467 197.819 24.92 197.819 25.76C197.819 26.7733 197.613 27.6933 197.199 28.52C196.799 29.3333 196.239 30.0267 195.519 30.6C194.799 31.1733 193.946 31.62 192.959 31.94C191.986 32.2467 190.933 32.4 189.799 32.4C189.399 32.4 189.013 32.38 188.639 32.34C188.266 32.3 187.899 32.2467 187.539 32.18C186.899 32.5667 186.579 33 186.579 33.48C186.579 33.8933 186.766 34.2 187.139 34.4C187.526 34.5867 188.033 34.72 188.659 34.8C189.286 34.88 189.999 34.9333 190.799 34.96C191.599 34.9733 192.419 35.0133 193.259 35.08C194.099 35.1467 194.919 35.2667 195.719 35.44C196.519 35.6 197.233 35.86 197.859 36.22C198.486 36.58 198.986 37.0733 199.359 37.7C199.746 38.3133 199.939 39.1067 199.939 40.08C199.939 40.9867 199.713 41.8667 199.259 42.72C198.819 43.5733 198.173 44.3333 197.319 45C196.479 45.6667 195.439 46.2 194.199 46.6C192.973 47.0133 191.573 47.22 189.999 47.22C188.453 47.22 187.106 47.0667 185.959 46.76C184.813 46.4667 183.859 46.0667 183.099 45.56C182.339 45.0667 181.773 44.4933 181.399 43.84C181.026 43.1867 180.839 42.5067 180.839 41.8C180.839 40.84 181.126 40.04 181.699 39.4C182.286 38.7467 183.086 38.2267 184.099 37.84C183.553 37.56 183.119 37.1867 182.799 36.72C182.479 36.2533 182.319 35.64 182.319 34.88C182.319 34.5733 182.373 34.26 182.479 33.94C182.599 33.6067 182.766 33.28 182.979 32.96C183.206 32.64 183.486 32.34 183.819 32.06C184.153 31.7667 184.546 31.5067 184.999 31.28C183.959 30.72 183.139 29.9733 182.539 29.04C181.953 28.1067 181.659 27.0133 181.659 25.76C181.659 24.7467 181.859 23.8333 182.259 23.02C182.673 22.1933 183.239 21.4933 183.959 20.92C184.693 20.3333 185.553 19.8867 186.539 19.58C187.539 19.2733 188.626 19.12 189.799 19.12C190.679 19.12 191.506 19.2133 192.279 19.4C193.053 19.5733 193.759 19.8333 194.399 20.18H200.299ZM214.272 31.24C212.846 31.3067 211.646 31.4333 210.672 31.62C209.699 31.7933 208.919 32.02 208.332 32.3C207.746 32.58 207.326 32.9067 207.072 33.28C206.819 33.6533 206.692 34.06 206.692 34.5C206.692 35.3667 206.946 35.9867 207.452 36.36C207.972 36.7333 208.646 36.92 209.472 36.92C210.486 36.92 211.359 36.74 212.092 36.38C212.839 36.0067 213.566 35.4467 214.272 34.7V31.24ZM202.952 22.34C205.312 20.18 208.152 19.1 211.472 19.1C212.672 19.1 213.746 19.3 214.692 19.7C215.639 20.0867 216.439 20.6333 217.092 21.34C217.746 22.0333 218.239 22.8667 218.572 23.84C218.919 24.8133 219.092 25.88 219.092 27.04V40H216.852C216.386 40 216.026 39.9333 215.772 39.8C215.519 39.6533 215.319 39.3667 215.172 38.94L214.732 37.46C214.212 37.9267 213.706 38.34 213.212 38.7C212.719 39.0467 212.206 39.34 211.672 39.58C211.139 39.82 210.566 40 209.952 40.12C209.352 40.2533 208.686 40.32 207.952 40.32C207.086 40.32 206.286 40.2067 205.552 39.98C204.819 39.74 204.186 39.3867 203.652 38.92C203.119 38.4533 202.706 37.8733 202.412 37.18C202.119 36.4867 201.972 35.68 201.972 34.76C201.972 34.24 202.059 33.7267 202.232 33.22C202.406 32.7 202.686 32.2067 203.072 31.74C203.472 31.2733 203.986 30.8333 204.612 30.42C205.239 30.0067 206.006 29.6467 206.912 29.34C207.832 29.0333 208.899 28.7867 210.112 28.6C211.326 28.4 212.712 28.28 214.272 28.24V27.04C214.272 25.6667 213.979 24.6533 213.392 24C212.806 23.3333 211.959 23 210.852 23C210.052 23 209.386 23.0933 208.852 23.28C208.332 23.4667 207.872 23.68 207.472 23.92C207.072 24.1467 206.706 24.3533 206.372 24.54C206.052 24.7267 205.692 24.82 205.292 24.82C204.946 24.82 204.652 24.7333 204.412 24.56C204.172 24.3733 203.979 24.16 203.832 23.92L202.952 22.34ZM236.265 23.48C236.131 23.6933 235.991 23.8467 235.845 23.94C235.698 24.02 235.511 24.06 235.285 24.06C235.045 24.06 234.785 23.9933 234.505 23.86C234.238 23.7267 233.925 23.58 233.565 23.42C233.205 23.2467 232.791 23.0933 232.325 22.96C231.871 22.8267 231.331 22.76 230.705 22.76C229.731 22.76 228.965 22.9667 228.405 23.38C227.858 23.7933 227.585 24.3333 227.585 25C227.585 25.44 227.725 25.8133 228.005 26.12C228.298 26.4133 228.678 26.6733 229.145 26.9C229.625 27.1267 230.165 27.3333 230.765 27.52C231.365 27.6933 231.971 27.8867 232.585 28.1C233.211 28.3133 233.825 28.56 234.425 28.84C235.025 29.1067 235.558 29.4533 236.025 29.88C236.505 30.2933 236.885 30.7933 237.165 31.38C237.458 31.9667 237.605 32.6733 237.605 33.5C237.605 34.4867 237.425 35.4 237.065 36.24C236.718 37.0667 236.198 37.7867 235.505 38.4C234.811 39 233.951 39.4733 232.925 39.82C231.911 40.1533 230.738 40.32 229.405 40.32C228.698 40.32 228.005 40.2533 227.325 40.12C226.658 40 226.011 39.8267 225.385 39.6C224.771 39.3733 224.198 39.1067 223.665 38.8C223.145 38.4933 222.685 38.16 222.285 37.8L223.425 35.92C223.571 35.6933 223.745 35.52 223.945 35.4C224.145 35.28 224.398 35.22 224.705 35.22C225.011 35.22 225.298 35.3067 225.565 35.48C225.845 35.6533 226.165 35.84 226.525 36.04C226.885 36.24 227.305 36.4267 227.785 36.6C228.278 36.7733 228.898 36.86 229.645 36.86C230.231 36.86 230.731 36.7933 231.145 36.66C231.571 36.5133 231.918 36.3267 232.185 36.1C232.465 35.8733 232.665 35.6133 232.785 35.32C232.918 35.0133 232.985 34.7 232.985 34.38C232.985 33.9 232.838 33.5067 232.545 33.2C232.265 32.8933 231.885 32.6267 231.405 32.4C230.938 32.1733 230.398 31.9733 229.785 31.8C229.185 31.6133 228.565 31.4133 227.925 31.2C227.298 30.9867 226.678 30.74 226.065 30.46C225.465 30.1667 224.925 29.8 224.445 29.36C223.978 28.92 223.598 28.38 223.305 27.74C223.025 27.1 222.885 26.3267 222.885 25.42C222.885 24.58 223.051 23.78 223.385 23.02C223.718 22.26 224.205 21.6 224.845 21.04C225.498 20.4667 226.305 20.0133 227.265 19.68C228.238 19.3333 229.358 19.16 230.625 19.16C232.038 19.16 233.325 19.3933 234.485 19.86C235.645 20.3267 236.611 20.94 237.385 21.7L236.265 23.48ZM259.709 29.04C258.869 29.04 258.256 29.3 257.869 29.82C257.496 30.3267 257.309 30.9867 257.309 31.8C257.309 32.4267 257.349 33.0533 257.429 33.68C257.523 34.3067 257.623 34.9333 257.729 35.56C257.849 36.1867 257.949 36.82 258.029 37.46C258.123 38.0867 258.169 38.7267 258.169 39.38C258.169 40.3933 258.023 41.3133 257.729 42.14C257.436 42.98 256.983 43.6933 256.369 44.28C255.769 44.88 255.003 45.34 254.069 45.66C253.149 45.9933 252.063 46.16 250.809 46.16H249.749V43.98C249.749 43.8067 249.783 43.6533 249.849 43.52C249.929 43.3867 250.023 43.28 250.129 43.2C250.249 43.12 250.369 43.06 250.489 43.02C250.609 42.98 250.716 42.96 250.809 42.96H250.989C251.923 42.96 252.629 42.6667 253.109 42.08C253.603 41.4933 253.849 40.6933 253.849 39.68C253.849 38.9467 253.809 38.2467 253.729 37.58C253.663 36.9 253.583 36.2467 253.489 35.62C253.396 34.98 253.309 34.3533 253.229 33.74C253.163 33.1267 253.129 32.5067 253.129 31.88C253.129 31.3867 253.196 30.9133 253.329 30.46C253.476 30.0067 253.683 29.5933 253.949 29.22C254.216 28.8467 254.536 28.5267 254.909 28.26C255.296 27.98 255.729 27.7667 256.209 27.62C255.729 27.4867 255.296 27.28 254.909 27C254.536 26.72 254.216 26.3933 253.949 26.02C253.683 25.6467 253.476 25.2333 253.329 24.78C253.196 24.3267 253.129 23.8533 253.129 23.36C253.129 22.7333 253.163 22.1133 253.229 21.5C253.309 20.8867 253.396 20.2667 253.489 19.64C253.583 19 253.663 18.3467 253.729 17.68C253.809 17 253.849 16.2933 253.849 15.56C253.849 14.5333 253.603 13.7267 253.109 13.14C252.629 12.5533 251.923 12.26 250.989 12.26H250.809C250.716 12.26 250.609 12.24 250.489 12.2C250.369 12.16 250.249 12.1 250.129 12.02C250.023 11.94 249.929 11.84 249.849 11.72C249.783 11.5867 249.749 11.4333 249.749 11.26V9.06H250.809C252.063 9.06 253.149 9.22667 254.069 9.56C255.003 9.88 255.769 10.34 256.369 10.94C256.983 11.54 257.436 12.26 257.729 13.1C258.023 13.9267 258.169 14.8467 258.169 15.86C258.169 16.5133 258.123 17.16 258.029 17.8C257.949 18.4267 257.849 19.0533 257.729 19.68C257.623 20.3067 257.523 20.9333 257.429 21.56C257.349 22.1733 257.309 22.7933 257.309 23.42C257.309 24.2333 257.496 24.9 257.869 25.42C258.256 25.9267 258.869 26.18 259.709 26.18V29.04Z" fill="#353535"/>
<path d="M41.0731 19.48V40H38.0531C37.3998 40 36.9865 39.7 36.8131 39.1L36.4731 37.46C35.6331 38.3133 34.7065 39.0067 33.6931 39.54C32.6798 40.06 31.4865 40.32 30.1131 40.32C28.9931 40.32 27.9998 40.1333 27.1331 39.76C26.2798 39.3733 25.5598 38.8333 24.9731 38.14C24.3865 37.4467 23.9398 36.6267 23.6331 35.68C23.3398 34.72 23.1931 33.6667 23.1931 32.52V19.48H28.1331V32.52C28.1331 33.7733 28.4198 34.7467 28.9931 35.44C29.5798 36.12 30.4531 36.46 31.6131 36.46C32.4665 36.46 33.2665 36.2733 34.0131 35.9C34.7598 35.5133 35.4665 34.9867 36.1331 34.32V19.48H41.0731ZM50.9713 10.28V40H46.0312V10.28H50.9713ZM61.0131 19.48V40H56.0531V19.48H61.0131ZM61.6931 13.5C61.6931 13.9267 61.6065 14.3267 61.4331 14.7C61.2598 15.0733 61.0265 15.4 60.7331 15.68C60.4531 15.96 60.1198 16.1867 59.7331 16.36C59.3465 16.52 58.9331 16.6 58.4931 16.6C58.0665 16.6 57.6598 16.52 57.2731 16.36C56.8998 16.1867 56.5731 15.96 56.2931 15.68C56.0131 15.4 55.7865 15.0733 55.6131 14.7C55.4531 14.3267 55.3731 13.9267 55.3731 13.5C55.3731 13.06 55.4531 12.6467 55.6131 12.26C55.7865 11.8733 56.0131 11.54 56.2931 11.26C56.5731 10.98 56.8998 10.76 57.2731 10.6C57.6598 10.4267 58.0665 10.34 58.4931 10.34C58.9331 10.34 59.3465 10.4267 59.7331 10.6C60.1198 10.76 60.4531 10.98 60.7331 11.26C61.0265 11.54 61.2598 11.8733 61.4331 12.26C61.6065 12.6467 61.6931 13.06 61.6931 13.5ZM78.5694 23.48C78.436 23.6933 78.296 23.8467 78.1494 23.94C78.0027 24.02 77.816 24.06 77.5894 24.06C77.3494 24.06 77.0894 23.9933 76.8094 23.86C76.5427 23.7267 76.2294 23.58 75.8694 23.42C75.5094 23.2467 75.096 23.0933 74.6294 22.96C74.176 22.8267 73.636 22.76 73.0094 22.76C72.036 22.76 71.2694 22.9667 70.7094 23.38C70.1627 23.7933 69.8894 24.3333 69.8894 25C69.8894 25.44 70.0294 25.8133 70.3094 26.12C70.6027 26.4133 70.9827 26.6733 71.4494 26.9C71.9294 27.1267 72.4694 27.3333 73.0694 27.52C73.6694 27.6933 74.276 27.8867 74.8894 28.1C75.516 28.3133 76.1294 28.56 76.7294 28.84C77.3294 29.1067 77.8627 29.4533 78.3294 29.88C78.8094 30.2933 79.1894 30.7933 79.4694 31.38C79.7627 31.9667 79.9094 32.6733 79.9094 33.5C79.9094 34.4867 79.7294 35.4 79.3694 36.24C79.0227 37.0667 78.5027 37.7867 77.8094 38.4C77.116 39 76.256 39.4733 75.2294 39.82C74.216 40.1533 73.0427 40.32 71.7094 40.32C71.0027 40.32 70.3094 40.2533 69.6294 40.12C68.9627 40 68.316 39.8267 67.6894 39.6C67.076 39.3733 66.5027 39.1067 65.9694 38.8C65.4494 38.4933 64.9894 38.16 64.5894 37.8L65.7294 35.92C65.876 35.6933 66.0494 35.52 66.2494 35.4C66.4494 35.28 66.7027 35.22 67.0094 35.22C67.316 35.22 67.6027 35.3067 67.8694 35.48C68.1494 35.6533 68.4694 35.84 68.8294 36.04C69.1894 36.24 69.6094 36.4267 70.0894 36.6C70.5827 36.7733 71.2027 36.86 71.9494 36.86C72.536 36.86 73.036 36.7933 73.4494 36.66C73.876 36.5133 74.2227 36.3267 74.4894 36.1C74.7694 35.8733 74.9694 35.6133 75.0894 35.32C75.2227 35.0133 75.2894 34.7 75.2894 34.38C75.2894 33.9 75.1427 33.5067 74.8494 33.2C74.5694 32.8933 74.1894 32.6267 73.7094 32.4C73.2427 32.1733 72.7027 31.9733 72.0894 31.8C71.4894 31.6133 70.8694 31.4133 70.2294 31.2C69.6027 30.9867 68.9827 30.74 68.3694 30.46C67.7694 30.1667 67.2294 29.8 66.7494 29.36C66.2827 28.92 65.9027 28.38 65.6094 27.74C65.3294 27.1 65.1894 26.3267 65.1894 25.42C65.1894 24.58 65.356 23.78 65.6894 23.02C66.0227 22.26 66.5094 21.6 67.1494 21.04C67.8027 20.4667 68.6094 20.0133 69.5694 19.68C70.5427 19.3333 71.6627 19.16 72.9294 19.16C74.3427 19.16 75.6294 19.3933 76.7894 19.86C77.9494 20.3267 78.916 20.94 79.6894 21.7L78.5694 23.48ZM96.8475 27.38C96.8475 26.74 96.7542 26.14 96.5675 25.58C96.3942 25.0067 96.1275 24.5067 95.7675 24.08C95.4075 23.6533 94.9475 23.32 94.3875 23.08C93.8408 22.8267 93.2008 22.7 92.4675 22.7C91.0408 22.7 89.9142 23.1067 89.0875 23.92C88.2742 24.7333 87.7542 25.8867 87.5275 27.38H96.8475ZM87.4275 30.36C87.5075 31.4133 87.6942 32.3267 87.9875 33.1C88.2808 33.86 88.6675 34.4933 89.1475 35C89.6275 35.4933 90.1942 35.8667 90.8475 36.12C91.5142 36.36 92.2475 36.48 93.0475 36.48C93.8475 36.48 94.5342 36.3867 95.1075 36.2C95.6942 36.0133 96.2008 35.8067 96.6275 35.58C97.0675 35.3533 97.4475 35.1467 97.7675 34.96C98.1008 34.7733 98.4208 34.68 98.7275 34.68C99.1408 34.68 99.4475 34.8333 99.6475 35.14L101.068 36.94C100.521 37.58 99.9075 38.12 99.2275 38.56C98.5475 38.9867 97.8342 39.3333 97.0875 39.6C96.3542 39.8533 95.6008 40.0333 94.8275 40.14C94.0675 40.2467 93.3275 40.3 92.6075 40.3C91.1808 40.3 89.8542 40.0667 88.6275 39.6C87.4008 39.12 86.3342 38.42 85.4275 37.5C84.5208 36.5667 83.8075 35.42 83.2875 34.06C82.7675 32.6867 82.5075 31.1 82.5075 29.3C82.5075 27.9 82.7342 26.5867 83.1875 25.36C83.6408 24.12 84.2875 23.0467 85.1275 22.14C85.9808 21.22 87.0142 20.4933 88.2275 19.96C89.4542 19.4267 90.8342 19.16 92.3675 19.16C93.6608 19.16 94.8542 19.3667 95.9475 19.78C97.0408 20.1933 97.9808 20.8 98.7675 21.6C99.5542 22.3867 100.168 23.36 100.608 24.52C101.061 25.6667 101.287 26.98 101.287 28.46C101.287 29.2067 101.208 29.7133 101.048 29.98C100.888 30.2333 100.581 30.36 100.128 30.36H87.4275ZM117.515 23.48C117.381 23.6933 117.241 23.8467 117.095 23.94C116.948 24.02 116.761 24.06 116.535 24.06C116.295 24.06 116.035 23.9933 115.755 23.86C115.488 23.7267 115.175 23.58 114.815 23.42C114.455 23.2467 114.041 23.0933 113.575 22.96C113.121 22.8267 112.581 22.76 111.955 22.76C110.981 22.76 110.215 22.9667 109.655 23.38C109.108 23.7933 108.835 24.3333 108.835 25C108.835 25.44 108.975 25.8133 109.255 26.12C109.548 26.4133 109.928 26.6733 110.395 26.9C110.875 27.1267 111.415 27.3333 112.015 27.52C112.615 27.6933 113.221 27.8867 113.835 28.1C114.461 28.3133 115.075 28.56 115.675 28.84C116.275 29.1067 116.808 29.4533 117.275 29.88C117.755 30.2933 118.135 30.7933 118.415 31.38C118.708 31.9667 118.855 32.6733 118.855 33.5C118.855 34.4867 118.675 35.4 118.315 36.24C117.968 37.0667 117.448 37.7867 116.755 38.4C116.061 39 115.201 39.4733 114.175 39.82C113.161 40.1533 111.988 40.32 110.655 40.32C109.948 40.32 109.255 40.2533 108.575 40.12C107.908 40 107.261 39.8267 106.635 39.6C106.021 39.3733 105.448 39.1067 104.915 38.8C104.395 38.4933 103.935 38.16 103.535 37.8L104.675 35.92C104.821 35.6933 104.995 35.52 105.195 35.4C105.395 35.28 105.648 35.22 105.955 35.22C106.261 35.22 106.548 35.3067 106.815 35.48C107.095 35.6533 107.415 35.84 107.775 36.04C108.135 36.24 108.555 36.4267 109.035 36.6C109.528 36.7733 110.148 36.86 110.895 36.86C111.481 36.86 111.981 36.7933 112.395 36.66C112.821 36.5133 113.168 36.3267 113.435 36.1C113.715 35.8733 113.915 35.6133 114.035 35.32C114.168 35.0133 114.235 34.7 114.235 34.38C114.235 33.9 114.088 33.5067 113.795 33.2C113.515 32.8933 113.135 32.6267 112.655 32.4C112.188 32.1733 111.648 31.9733 111.035 31.8C110.435 31.6133 109.815 31.4133 109.175 31.2C108.548 30.9867 107.928 30.74 107.315 30.46C106.715 30.1667 106.175 29.8 105.695 29.36C105.228 28.92 104.848 28.38 104.555 27.74C104.275 27.1 104.135 26.3267 104.135 25.42C104.135 24.58 104.301 23.78 104.635 23.02C104.968 22.26 105.455 21.6 106.095 21.04C106.748 20.4667 107.555 20.0133 108.515 19.68C109.488 19.3333 110.608 19.16 111.875 19.16C113.288 19.16 114.575 19.3933 115.735 19.86C116.895 20.3267 117.861 20.94 118.635 21.7L117.515 23.48Z" fill="#049DD9"/>
</svg>
